<?xml version="1.0" standalone="no"?>
<!DOCTYPE svg PUBLIC "-//W3C//DTD SVG 20010904//EN"
 "http://www.w3.org/TR/2001/REC-SVG-20010904/DTD/svg10.dtd">
<svg version="1.0" xmlns="http://www.w3.org/2000/svg"
 width="840.000000pt" height="505.000000pt" viewBox="0 0 840.000000 505.000000"
 preserveAspectRatio="xMidYMid meet">

<g transform="translate(0.000000,505.000000) scale(0.100000,-0.100000)"
fill="#000000" stroke="none">
<path d="M3985 4629 c-281 -33 -512 -101 -748 -221 -378 -192 -674 -473 -886
-840 -349 -607 -372 -1344 -62 -1978 102 -209 285 -459 443 -605 672 -623
1627 -761 2433 -352 578 294 992 834 1120 1462 126 618 -27 1250 -422 1746
-309 387 -767 665 -1253 759 -185 36 -459 49 -625 29z m677 -1144 c245 -407
479 -796 521 -865 41 -69 74 -126 73 -127 -1 -2 -235 103 -519 232 -284 129
-521 235 -527 235 -6 0 -11 -191 -12 -550 l-3 -551 -525 311 c-318 188 -525
316 -524 324 1 8 183 315 404 683 222 367 457 759 524 870 90 150 124 198 132
190 6 -7 212 -345 456 -752z m-1071 -1472 c239 -141 474 -280 523 -309 l89
-52 76 45 c42 25 267 158 501 296 234 138 435 257 448 265 12 8 22 12 22 9 0
-9 -1041 -1472 -1049 -1475 -8 -3 -1051 1459 -1051 1472 0 3 2 6 4 6 2 0 199
-115 437 -257z"/>
</g>
</svg>
